Simulation
nRows=44
nColumns=15
endheader
time  TH_x TH_y TH_z SC_y  SC_z  SC_x  AC_y  AC_z  AC_x  GH_y  GH_z  GH_yy  EL_x  PS_y
0.0  0.000000  0.000000  0.000000  -40.97484877243665  6.293857566463187  5.290427962726946  38.54275376213814  -1.5415184551958676  -7.811601060202319  108.39472676645921  7.064273846564137  -76.97540135400641  22.653446264932736  120.000000
0.05745  0.000000  0.000000  0.000000  -38.99441926949051  4.965002986509402  4.100898038057446  40.03051754329448  -2.169488589451491  -6.213269389389216  57.591054400706156  6.053093319833043  -29.993043701208368  22.105723816122563  120.000000
0.1149  0.000000  0.000000  0.000000  -37.069732233414264  3.523417074989785  2.7423187671103753  41.63893071802879  -2.9262495413067664  -4.511500226199049  20.188229505993494  9.182971867124126  3.6678311738789255  21.72836109016951  120.000000
0.17235  0.000000  0.000000  0.000000  -35.3685335330857  1.8831757961882336  1.2674296434928165  43.38847364232065  -3.9100890963390076  -2.6363799359570974  3.1846529688146106  14.10899743606961  17.059071588142533  21.60607394152498  120.000000
0.2298  0.000000  0.000000  0.000000  -34.05650907806734  -0.03739851173976165  -0.23192925978166623  45.349034090176225  -5.231593093492038  -0.5459629718434303  -6.139850410220992  19.945808310177195  22.951650317212266  21.75332697206262  120.000000
0.28725  0.000000  0.000000  0.000000  -33.148260891639914  -2.2491240417894884  -1.6745156581945475  47.49072507040924  -6.943847131194763  1.72765758237886  -12.381284434049872  26.504732705019475  25.97665866515854  22.107644076120703  120.000000
0.3447  0.000000  0.000000  0.000000  -32.59822180311684  -4.622305536008088  -2.9911115818661793  49.62999237733584  -9.008487408170609  4.119480820548273  -17.072243803959786  33.569351055014124  27.622611864172868  22.56306500695007  120.000000
0.40215  0.000000  0.000000  0.000000  -32.32292191130641  -6.942978174726063  -4.165774001960064  51.542141980577874  -11.208605557103207  6.54063686346257  -20.676967289577004  40.75592915917605  28.27236050453914  22.985532268744947  120.000000
0.4596  0.000000  0.000000  0.000000  -32.22568275381035  -8.924773105646157  -5.24569980375518  53.096987497883504  -13.16043555549984  8.883132078185431  -23.234771871807595  47.568116680520625  27.940862200660767  23.281576515699353  120.000000
0.51705  0.000000  0.000000  0.000000  -32.25308427300094  -10.282546698969709  -6.2740455818823  54.299797833070535  -14.450524676812112  10.99891730846687  -24.701242791021976  53.58278552522082  26.611261509423954  23.411937348822832  120.000000
0.5745  0.000000  0.000000  0.000000  -32.37006400187321  -10.876107512417034  -7.247718941515109  55.26728336861581  -14.790915285497654  12.767784990492222  -25.216076950611445  58.62792868487832  24.455844725009367  23.35383979496055  120.000000
0.63195  0.000000  0.000000  0.000000  -32.61046727178297  -10.690729214057546  -8.159459828493489  56.20686144877641  -14.081381507911338  14.263090975006646  -25.211027923732058  62.78536819286452  21.94425325572696  23.121917401409377  120.000000
0.6894  0.000000  0.000000  0.000000  -33.0789753881477  -9.777515728611645  -9.016250574686246  57.32511477047856  -12.358293533769622  15.696795682526249  -25.21687944723194  66.19490138933357  19.643661299864792  22.76602693115335  120.000000
0.74685  0.000000  0.000000  0.000000  -33.902376770577085  -8.201779749697156  -9.834410120157024  58.710884958561856  -9.718536230753624  17.244593600852205  -25.467344659672985  68.84474633461008  17.789119558294566  22.328350697516942  120.000000
0.8043  0.000000  0.000000  0.000000  -35.11088631768491  -6.053621197408132  -10.604344349732887  60.30472819101787  -6.286082802215698  18.95422404056751  -25.928881209455664  70.62893491944556  16.325240739085892  21.8460019727523  120.000000
0.86175  0.000000  0.000000  0.000000  -36.56194833140224  -3.5105486490338795  -11.273764969178037  61.95961718559989  -2.2252783142816948  20.769627359019854  -26.575406625108123  71.54596701492844  15.185902364881091  21.357436245275665  120.000000
0.9192  0.000000  0.000000  0.000000  -38.05506379389722  -0.823614096265407  -11.799828555928364  63.47574864019498  2.2354738677679604  22.57133752138261  -27.299939102130114  71.77041794685336  14.196825560371598  20.884992032145654  120.000000
0.97665  0.000000  0.000000  0.000000  -39.467541178863165  1.7642913754815863  -12.180249976166404  64.66443260337009  6.81464050714637  24.21570425304888  -27.821574369124757  71.59190924085864  13.017125974290455  20.424827198212064  120.000000
1.0341  0.000000  0.000000  0.000000  -40.764179275921656  4.116785216278743  -12.373267428717389  65.43208111277438  11.263167035543953  25.61808696563301  -27.954818378852497  71.22065924989256  11.491849516593502  19.97847687706243  120.000000
1.09155  0.000000  0.000000  0.000000  -41.95316294680957  6.1883025532316065  -12.282881045649434  65.77597530163948  15.387857475196459  26.767301449785958  -27.721869784893748  70.73791808167051  9.761380931610203  19.55613601727153  120.000000
1.149  0.000000  0.000000  0.000000  -43.06872364578359  7.958433944148351  -11.82702480042119  65.76167925999025  19.010535178328183  27.68974883175837  -27.208700319125644  70.21973609439812  8.041484500963074  19.159420664726515  120.000000
1.20645  0.000000  0.000000  0.000000  -44.14423208228383  9.421526538757941  -10.965801237173268  65.49960600890924  21.990418197102517  28.410826023712186  -26.507724243774643  69.7413127853451  6.516411739736794  18.78420120450051  120.000000
1.2639  0.000000  0.000000  0.000000  -45.198298513663765  10.587992375806197  -9.715423158599028  65.11655622554215  24.25986417061809  28.936740799055674  -25.70453727413271  69.33862389722522  5.297681420138156  18.42765484637801  120.000000
1.32135  0.000000  0.000000  0.000000  -46.22237273803327  11.474968111259097  -8.16481902580365  64.72679750896417  25.830752159090885  29.2670424845262  -24.869954839289715  69.01848312034032  4.408104078829712  18.09427004248152  120.000000
1.3788  0.000000  0.000000  0.000000  -47.17526537788097  12.10641380569749  -6.476893280144707  64.41397855242657  26.787516746854987  29.4117110071207  -24.067422991955457  68.77198552943788  3.7994116541125744  17.794233416118992  120.000000
1.43625  0.000000  0.000000  0.000000  -47.989026698223164  12.520940517271502  -4.8725061187489835  64.22137309450045  27.265638383578594  29.41601909448994  -23.36259270532268  68.58693996729991  3.3892938681492435  17.540056474946486  120.000000
1.4937  0.000000  0.000000  0.000000  -48.58554880950577  12.777586186463093  -3.608833144846562  64.16083484748732  27.429728043465783  29.371525787990887  -22.830315352746176  68.45516279529856  3.094738771189466  17.339011095790266  120.000000
1.55115  0.000000  0.000000  0.000000  -48.89808465888794  12.935162256170194  -2.9094070234712794  64.22718558708718  27.415383257381382  29.37444197915407  -22.535557936447834  68.37197395678763  2.852073848344802  17.19427956194107  120.000000
1.6086  0.000000  0.000000  0.000000  -48.887546981590106  13.01127043941125  -2.8693792921676584  64.41486913999772  27.258418325936056  29.44493735331728  -22.501875582329436  68.33183458302722  2.621886164119986  17.112257874841774  120.000000
1.66605  0.000000  0.000000  0.000000  -48.55304063650335  12.982281642785482  -3.462669207017142  64.72402541914987  26.909655877779322  29.546926898594183  -22.712899856281265  68.32869461036597  2.3900908599806057  17.09847994562421  120.000000
1.7235  0.000000  0.000000  0.000000  -47.93345046708385  12.810715022958352  -4.60248576624478  65.15779126107306  26.298494033993396  29.65759847561924  -23.133706814994394  68.35862148575492  2.1664855498005147  17.146076222452553  120.000000
1.78095  0.000000  0.000000  0.000000  -47.099693344953245  12.453825385531813  -6.1580262484727655  65.71212245185679  25.359133572876328  29.780598406958635  -23.715708834011025  68.41945458190382  1.98018723607275  17.234743147412477  120.000000
1.8384  0.000000  0.000000  0.000000  -46.13880457023461  11.865606930915192  -7.96040179812411  66.36374382521149  24.032041919477148  29.926110126893658  -24.399697907947377  68.50958113775489  1.8703197171068378  17.335350611404614  120.000000
1.89585  0.000000  0.000000  0.000000  -45.13490823386526  10.998828094834973  -9.823063634252788  67.06188872582251  22.268109004915498  30.08878502179516  -25.123834513845644  68.62692779545466  1.8733728124397047  17.417701674718224  120.000000
1.9533  0.000000  0.000000  0.000000  -44.151676674265246  9.812363282662652  -11.569161695918485  67.72667804468824  20.034308518163897  30.236224759741297  -25.830779419089833  68.76698080634408  2.0065608378621227  17.460371477675952  120.000000
2.01075  0.000000  0.000000  0.000000  -43.21857968547681  8.276126922226522  -13.05393947295342  68.25947870165149  17.324298269753726  30.304992671147417  -26.476322758360098  68.92101541695236  2.2531379030101726  17.4570288063339  120.000000
2.0682  0.000000  0.000000  0.000000  -42.31938021715525  6.378250717637289  -14.1757413699162  68.56118483464003  14.165600243123817  30.21067803415194  -27.03869743461978  69.0756772956776  2.5565559942165437  17.413591770209454  120.000000
2.1256500000000003  0.000000  0.000000  0.000000  -41.38811734777743  4.131999959880597  -14.874125453521906  68.55159027639527  10.620114120891634  29.864912128867722  -27.523603908360922  69.21554942276572  2.8291350259415746  17.334397516891116  120.000000
2.1831  0.000000  0.000000  0.000000  -40.32694175839477  1.5864503410777577  -15.123142955955  68.18053080033529  6.771524713865006  29.204525516941978  -27.946523968342536  69.32310188702297  2.9746535947368846  17.21111072752392  120.000000
2.24055  0.000000  0.000000  0.000000  -39.077808216798324  -1.1641411537331046  -14.926473858127709  67.43288212339094  2.7014704654206376  28.213339975102055  -28.285753798274595  69.37726487241001  2.91715010410562  17.022879117995252  120.000000
2.298  0.000000  0.000000  0.000000  -37.708925994720516  -3.9307654502519718  -14.290027181053564  66.31264203517796  -1.4670321383203393  26.89426642422087  -28.4807997307391  69.22765708705353  2.6676920410642753  16.754403383862766  120.000000
2.3554500000000003  0.000000  0.000000  0.000000  -36.402950911838296  -6.40063294044429  -13.210883868634985  64.84416251035461  -5.484419529150229  25.20039532548343  -28.474580261023085  68.46838172067444  2.375598825622202  16.408307307636225  120.000000
2.4129  0.000000  0.000000  0.000000  -35.313475563520115  -8.293223752263586  -11.733225114154555  63.0809505405793  -9.043035503611087  23.042347205594364  -28.21833661750277  66.7146484167981  2.235220525749353  15.988114926990733  120.000000
2.47035  0.000000  0.000000  0.000000  -34.46212072959873  -9.472871540671708  -9.94667498878748  61.0931091175007  -11.890388070581013  20.361267135891634  -27.669702723029914  63.81565712897178  2.394130594535519  15.496864114696658  120.000000
